<svg xmlns="http://www.w3.org/2000/svg" viewBox="0 0 1160 420" width="1160" height="420" font-family="system-ui, -apple-system, 'Segoe UI', Roboto, 'Helvetica Neue', Arial, sans-serif" role="img" aria-label="The public address 2001:db8:1:2:3:a:bcd0:5 written in full above the mesh address fdaa:1:0:abcd::5. Braces mark the router block /80, a reserved zero, a 24-bit tenant, and a 20-bit VM in the public address, and the fdaa prefix, region, 32-bit tenant, and 64-bit VM ID in the mesh address. Arrows join the tenant fields and the VM fields."><rect width="100%" height="100%" fill="#ffffff"/><text x="146.79999999999998" y="130" font-size="38" font-family="ui-monospace, 'SF Mono', Menlo, Consolas, 'DejaVu Sans Mono', monospace" text-anchor="middle" dominant-baseline="central" fill="#b4235a" font-weight="600">2</text><text x="169.6" y="130" font-size="38" font-family="ui-monospace, 'SF Mono', Menlo, Consolas, 'DejaVu Sans Mono', monospace" text-anchor="middle" dominant-baseline="central" fill="#b4235a" font-weight="600">0</text><text x="192.39999999999998" y="130" font-size="38" font-family="ui-monospace, 'SF Mono', Menlo, Consolas, 'DejaVu Sans Mono', monospace" text-anchor="middle" dominant-baseline="central" fill="#b4235a" font-weight="600">0</text><text x="215.2" y="130" font-size="38" font-family="ui-monospace, 'SF Mono', Menlo, Consolas, 'DejaVu Sans Mono', monospace" text-anchor="middle" dominant-baseline="central" fill="#b4235a" font-weight="600">1</text><text x="237.99999999999997" y="130" font-size="38" font-family="ui-monospace, 'SF Mono', Menlo, Consolas, 'DejaVu Sans Mono', monospace" text-anchor="middle" dominant-baseline="central" fill="#b4235a" font-weight="600">:</text><text x="260.79999999999995" y="130" font-size="38" font-family="ui-monospace, 'SF Mono', Menlo, Consolas, 'DejaVu Sans Mono', monospace" text-anchor="middle" dominant-baseline="central" fill="#b4235a" font-weight="600">0</text><text x="283.59999999999997" y="130" font-size="38" font-family="ui-monospace, 'SF Mono', Menlo, Consolas, 'DejaVu Sans Mono', monospace" text-anchor="middle" dominant-baseline="central" fill="#b4235a" font-weight="600">d</text><text x="306.4" y="130" font-size="38" font-family="ui-monospace, 'SF Mono', Menlo, Consolas, 'DejaVu Sans Mono', monospace" text-anchor="middle" dominant-baseline="central" fill="#b4235a" font-weight="600">b</text><text x="329.19999999999993" y="130" font-size="38" font-family="ui-monospace, 'SF Mono', Menlo, Consolas, 'DejaVu Sans Mono', monospace" text-anchor="middle" dominant-baseline="central" fill="#b4235a" font-weight="600">8</text><text x="352" y="130" font-size="38" font-family="ui-monospace, 'SF Mono', Menlo, Consolas, 'DejaVu Sans Mono', monospace" text-anchor="middle" dominant-baseline="central" fill="#b4235a" font-weight="600">:</text><text x="374.79999999999995" y="130" font-size="38" font-family="ui-monospace, 'SF Mono', Menlo, Consolas, 'DejaVu Sans Mono', monospace" text-anchor="middle" dominant-baseline="central" fill="#b4235a" font-weight="600">0</text><text x="397.59999999999997" y="130" font-size="38" font-family="ui-monospace, 'SF Mono', Menlo, Consolas, 'DejaVu Sans Mono', monospace" text-anchor="middle" dominant-baseline="central" fill="#b4235a" font-weight="600">0</text><text x="420.4" y="130" font-size="38" font-family="ui-monospace, 'SF Mono', Menlo, Consolas, 'DejaVu Sans Mono', monospace" text-anchor="middle" dominant-baseline="central" fill="#b4235a" font-weight="600">0</text><text x="443.2" y="130" font-size="38" font-family="ui-monospace, 'SF Mono', Menlo, Consolas, 'DejaVu Sans Mono', monospace" text-anchor="middle" dominant-baseline="central" fill="#b4235a" font-weight="600">1</text><text x="465.99999999999994" y="130" font-size="38" font-family="ui-monospace, 'SF Mono', Menlo, Consolas, 'DejaVu Sans Mono', monospace" text-anchor="middle" dominant-baseline="central" fill="#b4235a" font-weight="600">:</text><text x="488.79999999999995" y="130" font-size="38" font-family="ui-monospace, 'SF Mono', Menlo, Consolas, 'DejaVu Sans Mono', monospace" text-anchor="middle" dominant-baseline="central" fill="#b4235a" font-weight="600">0</text><text x="511.59999999999997" y="130" font-size="38" font-family="ui-monospace, 'SF Mono', Menlo, Consolas, 'DejaVu Sans Mono', monospace" text-anchor="middle" dominant-baseline="central" fill="#b4235a" font-weight="600">0</text><text x="534.4" y="130" font-size="38" font-family="ui-monospace, 'SF Mono', Menlo, Consolas, 'DejaVu Sans Mono', monospace" text-anchor="middle" dominant-baseline="central" fill="#b4235a" font-weight="600">0</text><text x="557.1999999999999" y="130" font-size="38" font-family="ui-monospace, 'SF Mono', Menlo, Consolas, 'DejaVu Sans Mono', monospace" text-anchor="middle" dominant-baseline="central" fill="#b4235a" font-weight="600">2</text><text x="579.9999999999999" y="130" font-size="38" font-family="ui-monospace, 'SF Mono', Menlo, Consolas, 'DejaVu Sans Mono', monospace" text-anchor="middle" dominant-baseline="central" fill="#b4235a" font-weight="600">:</text><text x="602.8" y="130" font-size="38" font-family="ui-monospace, 'SF Mono', Menlo, Consolas, 'DejaVu Sans Mono', monospace" text-anchor="middle" dominant-baseline="central" fill="#b4235a" font-weight="600">0</text><text x="625.6" y="130" font-size="38" font-family="ui-monospace, 'SF Mono', Menlo, Consolas, 'DejaVu Sans Mono', monospace" text-anchor="middle" dominant-baseline="central" fill="#b4235a" font-weight="600">0</text><text x="648.4" y="130" font-size="38" font-family="ui-monospace, 'SF Mono', Menlo, Consolas, 'DejaVu Sans Mono', monospace" text-anchor="middle" dominant-baseline="central" fill="#b4235a" font-weight="600">0</text><text x="671.1999999999999" y="130" font-size="38" font-family="ui-monospace, 'SF Mono', Menlo, Consolas, 'DejaVu Sans Mono', monospace" text-anchor="middle" dominant-baseline="central" fill="#b4235a" font-weight="600">3</text><text x="694" y="130" font-size="38" font-family="ui-monospace, 'SF Mono', Menlo, Consolas, 'DejaVu Sans Mono', monospace" text-anchor="middle" dominant-baseline="central" fill="#adb5bd" font-weight="600">:</text><text x="716.8" y="130" font-size="38" font-family="ui-monospace, 'SF Mono', Menlo, Consolas, 'DejaVu Sans Mono', monospace" text-anchor="middle" dominant-baseline="central" fill="#adb5bd" font-weight="600">0</text><text x="739.6" y="130" font-size="38" font-family="ui-monospace, 'SF Mono', Menlo, Consolas, 'DejaVu Sans Mono', monospace" text-anchor="middle" dominant-baseline="central" fill="#6d28d9" font-weight="600">0</text><text x="762.4" y="130" font-size="38" font-family="ui-monospace, 'SF Mono', Menlo, Consolas, 'DejaVu Sans Mono', monospace" text-anchor="middle" dominant-baseline="central" fill="#6d28d9" font-weight="600">0</text><text x="785.1999999999999" y="130" font-size="38" font-family="ui-monospace, 'SF Mono', Menlo, Consolas, 'DejaVu Sans Mono', monospace" text-anchor="middle" dominant-baseline="central" fill="#6d28d9" font-weight="600">a</text><text x="808" y="130" font-size="38" font-family="ui-monospace, 'SF Mono', Menlo, Consolas, 'DejaVu Sans Mono', monospace" text-anchor="middle" dominant-baseline="central" fill="#6d28d9" font-weight="600">:</text><text x="830.8" y="130" font-size="38" font-family="ui-monospace, 'SF Mono', Menlo, Consolas, 'DejaVu Sans Mono', monospace" text-anchor="middle" dominant-baseline="central" fill="#6d28d9" font-weight="600">b</text><text x="853.6" y="130" font-size="38" font-family="ui-monospace, 'SF Mono', Menlo, Consolas, 'DejaVu Sans Mono', monospace" text-anchor="middle" dominant-baseline="central" fill="#6d28d9" font-weight="600">c</text><text x="876.4" y="130" font-size="38" font-family="ui-monospace, 'SF Mono', Menlo, Consolas, 'DejaVu Sans Mono', monospace" text-anchor="middle" dominant-baseline="central" fill="#6d28d9" font-weight="600">d</text><text x="899.1999999999999" y="130" font-size="38" font-family="ui-monospace, 'SF Mono', Menlo, Consolas, 'DejaVu Sans Mono', monospace" text-anchor="middle" dominant-baseline="central" fill="#0f766e" font-weight="600">0</text><text x="922" y="130" font-size="38" font-family="ui-monospace, 'SF Mono', Menlo, Consolas, 'DejaVu Sans Mono', monospace" text-anchor="middle" dominant-baseline="central" fill="#0f766e" font-weight="600">:</text><text x="944.8" y="130" font-size="38" font-family="ui-monospace, 'SF Mono', Menlo, Consolas, 'DejaVu Sans Mono', monospace" text-anchor="middle" dominant-baseline="central" fill="#0f766e" font-weight="600">0</text><text x="967.6" y="130" font-size="38" font-family="ui-monospace, 'SF Mono', Menlo, Consolas, 'DejaVu Sans Mono', monospace" text-anchor="middle" dominant-baseline="central" fill="#0f766e" font-weight="600">0</text><text x="990.4" y="130" font-size="38" font-family="ui-monospace, 'SF Mono', Menlo, Consolas, 'DejaVu Sans Mono', monospace" text-anchor="middle" dominant-baseline="central" fill="#0f766e" font-weight="600">0</text><text x="1013.1999999999999" y="130" font-size="38" font-family="ui-monospace, 'SF Mono', Menlo, Consolas, 'DejaVu Sans Mono', monospace" text-anchor="middle" dominant-baseline="central" fill="#0f766e" font-weight="600">5</text><text x="146.79999999999998" y="272" font-size="38" font-family="ui-monospace, 'SF Mono', Menlo, Consolas, 'DejaVu Sans Mono', monospace" text-anchor="middle" dominant-baseline="central" fill="#495057" font-weight="600">f</text><text x="169.6" y="272" font-size="38" font-family="ui-monospace, 'SF Mono', Menlo, Consolas, 'DejaVu Sans Mono', monospace" text-anchor="middle" dominant-baseline="central" fill="#495057" font-weight="600">d</text><text x="192.39999999999998" y="272" font-size="38" font-family="ui-monospace, 'SF Mono', Menlo, Consolas, 'DejaVu Sans Mono', monospace" text-anchor="middle" dominant-baseline="central" fill="#495057" font-weight="600">a</text><text x="215.2" y="272" font-size="38" font-family="ui-monospace, 'SF Mono', Menlo, Consolas, 'DejaVu Sans Mono', monospace" text-anchor="middle" dominant-baseline="central" fill="#495057" font-weight="600">a</text><text x="237.99999999999997" y="272" font-size="38" font-family="ui-monospace, 'SF Mono', Menlo, Consolas, 'DejaVu Sans Mono', monospace" text-anchor="middle" dominant-baseline="central" fill="#adb5bd" font-weight="600">:</text><text x="260.79999999999995" y="272" font-size="38" font-family="ui-monospace, 'SF Mono', Menlo, Consolas, 'DejaVu Sans Mono', monospace" text-anchor="middle" dominant-baseline="central" fill="#92400e" font-weight="600">0</text><text x="283.59999999999997" y="272" font-size="38" font-family="ui-monospace, 'SF Mono', Menlo, Consolas, 'DejaVu Sans Mono', monospace" text-anchor="middle" dominant-baseline="central" fill="#92400e" font-weight="600">0</text><text x="306.4" y="272" font-size="38" font-family="ui-monospace, 'SF Mono', Menlo, Consolas, 'DejaVu Sans Mono', monospace" text-anchor="middle" dominant-baseline="central" fill="#92400e" font-weight="600">0</text><text x="329.19999999999993" y="272" font-size="38" font-family="ui-monospace, 'SF Mono', Menlo, Consolas, 'DejaVu Sans Mono', monospace" text-anchor="middle" dominant-baseline="central" fill="#92400e" font-weight="600">1</text><text x="352" y="272" font-size="38" font-family="ui-monospace, 'SF Mono', Menlo, Consolas, 'DejaVu Sans Mono', monospace" text-anchor="middle" dominant-baseline="central" fill="#adb5bd" font-weight="600">:</text><text x="374.79999999999995" y="272" font-size="38" font-family="ui-monospace, 'SF Mono', Menlo, Consolas, 'DejaVu Sans Mono', monospace" text-anchor="middle" dominant-baseline="central" fill="#6d28d9" font-weight="600">0</text><text x="397.59999999999997" y="272" font-size="38" font-family="ui-monospace, 'SF Mono', Menlo, Consolas, 'DejaVu Sans Mono', monospace" text-anchor="middle" dominant-baseline="central" fill="#6d28d9" font-weight="600">0</text><text x="420.4" y="272" font-size="38" font-family="ui-monospace, 'SF Mono', Menlo, Consolas, 'DejaVu Sans Mono', monospace" text-anchor="middle" dominant-baseline="central" fill="#6d28d9" font-weight="600">0</text><text x="443.2" y="272" font-size="38" font-family="ui-monospace, 'SF Mono', Menlo, Consolas, 'DejaVu Sans Mono', monospace" text-anchor="middle" dominant-baseline="central" fill="#6d28d9" font-weight="600">0</text><text x="465.99999999999994" y="272" font-size="38" font-family="ui-monospace, 'SF Mono', Menlo, Consolas, 'DejaVu Sans Mono', monospace" text-anchor="middle" dominant-baseline="central" fill="#6d28d9" font-weight="600">:</text><text x="488.79999999999995" y="272" font-size="38" font-family="ui-monospace, 'SF Mono', Menlo, Consolas, 'DejaVu Sans Mono', monospace" text-anchor="middle" dominant-baseline="central" fill="#6d28d9" font-weight="600">a</text><text x="511.59999999999997" y="272" font-size="38" font-family="ui-monospace, 'SF Mono', Menlo, Consolas, 'DejaVu Sans Mono', monospace" text-anchor="middle" dominant-baseline="central" fill="#6d28d9" font-weight="600">b</text><text x="534.4" y="272" font-size="38" font-family="ui-monospace, 'SF Mono', Menlo, Consolas, 'DejaVu Sans Mono', monospace" text-anchor="middle" dominant-baseline="central" fill="#6d28d9" font-weight="600">c</text><text x="557.1999999999999" y="272" font-size="38" font-family="ui-monospace, 'SF Mono', Menlo, Consolas, 'DejaVu Sans Mono', monospace" text-anchor="middle" dominant-baseline="central" fill="#6d28d9" font-weight="600">d</text><text x="579.9999999999999" y="272" font-size="38" font-family="ui-monospace, 'SF Mono', Menlo, Consolas, 'DejaVu Sans Mono', monospace" text-anchor="middle" dominant-baseline="central" fill="#adb5bd" font-weight="600">:</text><text x="602.8" y="272" font-size="38" font-family="ui-monospace, 'SF Mono', Menlo, Consolas, 'DejaVu Sans Mono', monospace" text-anchor="middle" dominant-baseline="central" fill="#0f766e" font-weight="600">0</text><text x="625.6" y="272" font-size="38" font-family="ui-monospace, 'SF Mono', Menlo, Consolas, 'DejaVu Sans Mono', monospace" text-anchor="middle" dominant-baseline="central" fill="#0f766e" font-weight="600">0</text><text x="648.4" y="272" font-size="38" font-family="ui-monospace, 'SF Mono', Menlo, Consolas, 'DejaVu Sans Mono', monospace" text-anchor="middle" dominant-baseline="central" fill="#0f766e" font-weight="600">0</text><text x="671.1999999999999" y="272" font-size="38" font-family="ui-monospace, 'SF Mono', Menlo, Consolas, 'DejaVu Sans Mono', monospace" text-anchor="middle" dominant-baseline="central" fill="#0f766e" font-weight="600">0</text><text x="694" y="272" font-size="38" font-family="ui-monospace, 'SF Mono', Menlo, Consolas, 'DejaVu Sans Mono', monospace" text-anchor="middle" dominant-baseline="central" fill="#0f766e" font-weight="600">:</text><text x="716.8" y="272" font-size="38" font-family="ui-monospace, 'SF Mono', Menlo, Consolas, 'DejaVu Sans Mono', monospace" text-anchor="middle" dominant-baseline="central" fill="#0f766e" font-weight="600">0</text><text x="739.6" y="272" font-size="38" font-family="ui-monospace, 'SF Mono', Menlo, Consolas, 'DejaVu Sans Mono', monospace" text-anchor="middle" dominant-baseline="central" fill="#0f766e" font-weight="600">0</text><text x="762.4" y="272" font-size="38" font-family="ui-monospace, 'SF Mono', Menlo, Consolas, 'DejaVu Sans Mono', monospace" text-anchor="middle" dominant-baseline="central" fill="#0f766e" font-weight="600">0</text><text x="785.1999999999999" y="272" font-size="38" font-family="ui-monospace, 'SF Mono', Menlo, Consolas, 'DejaVu Sans Mono', monospace" text-anchor="middle" dominant-baseline="central" fill="#0f766e" font-weight="600">0</text><text x="808" y="272" font-size="38" font-family="ui-monospace, 'SF Mono', Menlo, Consolas, 'DejaVu Sans Mono', monospace" text-anchor="middle" dominant-baseline="central" fill="#0f766e" font-weight="600">:</text><text x="830.8" y="272" font-size="38" font-family="ui-monospace, 'SF Mono', Menlo, Consolas, 'DejaVu Sans Mono', monospace" text-anchor="middle" dominant-baseline="central" fill="#0f766e" font-weight="600">0</text><text x="853.6" y="272" font-size="38" font-family="ui-monospace, 'SF Mono', Menlo, Consolas, 'DejaVu Sans Mono', monospace" text-anchor="middle" dominant-baseline="central" fill="#0f766e" font-weight="600">0</text><text x="876.4" y="272" font-size="38" font-family="ui-monospace, 'SF Mono', Menlo, Consolas, 'DejaVu Sans Mono', monospace" text-anchor="middle" dominant-baseline="central" fill="#0f766e" font-weight="600">0</text><text x="899.1999999999999" y="272" font-size="38" font-family="ui-monospace, 'SF Mono', Menlo, Consolas, 'DejaVu Sans Mono', monospace" text-anchor="middle" dominant-baseline="central" fill="#0f766e" font-weight="600">0</text><text x="922" y="272" font-size="38" font-family="ui-monospace, 'SF Mono', Menlo, Consolas, 'DejaVu Sans Mono', monospace" text-anchor="middle" dominant-baseline="central" fill="#0f766e" font-weight="600">:</text><text x="944.8" y="272" font-size="38" font-family="ui-monospace, 'SF Mono', Menlo, Consolas, 'DejaVu Sans Mono', monospace" text-anchor="middle" dominant-baseline="central" fill="#0f766e" font-weight="600">0</text><text x="967.6" y="272" font-size="38" font-family="ui-monospace, 'SF Mono', Menlo, Consolas, 'DejaVu Sans Mono', monospace" text-anchor="middle" dominant-baseline="central" fill="#0f766e" font-weight="600">0</text><text x="990.4" y="272" font-size="38" font-family="ui-monospace, 'SF Mono', Menlo, Consolas, 'DejaVu Sans Mono', monospace" text-anchor="middle" dominant-baseline="central" fill="#0f766e" font-weight="600">0</text><text x="1013.1999999999999" y="272" font-size="38" font-family="ui-monospace, 'SF Mono', Menlo, Consolas, 'DejaVu Sans Mono', monospace" text-anchor="middle" dominant-baseline="central" fill="#0f766e" font-weight="600">5</text><text font-size="17" fill="#6c757d" text-anchor="start" dominant-baseline="central" font-weight="650"><tspan x="40" y="130">public</tspan></text><text font-size="17" fill="#6c757d" text-anchor="start" dominant-baseline="central" font-weight="650"><tspan x="40" y="272">mesh</tspan></text><path d="M136.39999999999998 104 C135.72677977811543 98.32000274428476, 139.25246937007952 94.21562977600843, 146.88125102650372 94.46830036211759 M137.0649177027866 104.24243121314794 C135.8609200155828 97.60340553138715, 139.9884055893713 94.69287120862865, 146.85665334374642 93.91355598433874 M146.8738495513638 94.43928332266685 C200.26743853863377 93.78130429955972, 253.85013763067195 94.25834540261529, 399.59230513266255 93.81439539402596 M146.3543678587913 94.24937955604993 C233.4666984085503 94.3123129022554, 319.8128722413585 94.36847040959063, 399.05656017646436 94.07490259145165 M399 94 C406.3880519025649 93.98672204185277, 408.0596822751686 90.58977133004616, 409.1828575981781 84.71912165451795 M399.1852059913799 94.07840989995748 C404.62976743440765 94.43715962483547, 408.6322504332755 90.4273313071734, 410.0629229745362 83.95490383668803 M409 84 C408.65293249022216 91.37090218036126, 412.4858148846154 94.43696193862706, 418.9503146959469 93.64068805146962 M409.58973946701735 83.31381239462644 C409.75880237431267 91.31607711279455, 413.3249783720666 94.09766469313763, 417.8938161647413 94.2000882269349 M419.18768150822063 94.80091467721745 C481.3256371883488 94.9392607163499, 543.3969503364826 94.72277002315656, 671.2166490704219 93.46856793592352 M419.37083774824947 94.04679391010501 C484.82647519925916 93.89779273906584, 550.8957980525198 93.46179816496132, 671.4010414537147 93.89869561939062 M671.6 94 C677.9546674900378 93.48774494696409, 682.536334903352 97.15545303591837, 681.5610242797062 104.6030056970194 M671.1401634825394 93.23146565724164 C678.3042577834024 93.86079594953917, 682.6812802052591 97.91012139533025, 681.6905518180225 105.02680776431225" stroke="#b4235a" stroke-width="1.8" fill="none" stroke-linecap="round" stroke-linejoin="round"/><rect x="327.2" y="45.12" width="163.60000000000002" height="25.76" rx="4" fill="#ffffff" opacity="0.94"/><text font-size="17" fill="#b4235a" text-anchor="middle" dominant-baseline="central" font-weight="650"><tspan x="409" y="58">router block /80</tspan></text><path d="M706.4 104 C707.1598221143707 96.70661612444867, 707.8669432620828 93.08487066719681, 712.369508077763 94.92442169878632 M706.1919762572273 104.4859126219526 C705.6626839276869 96.54920670695913, 708.6569516243258 94.87852449673228, 711.0114004146774 93.60941688972525 M711.6 94 C711.6 94, 711.5999999999999 94, 711.5999999999999 94 M711.6 94 C711.6 94, 711.6 94, 711.5999999999999 94 M711.5999999999999 94 C715.6989906907702 94.91296750400215, 716.6543856879696 89.71821064843486, 717.6923323294147 83.77387318108231 M710.679543932341 94.6651580343023 C715.328577781391 93.61141885924152, 716.099754447909 89.91362168548319, 716.6199948769528 84.37270539063029 M716.8 84 C717.063105883263 91.0507576574261, 718.9895482818906 93.95178181026131, 721.1006202539429 94.04027807805687 M717.2597631236538 83.22574189398438 C715.8980339389759 90.8629349773905, 718.9009602831521 92.9204947035294, 721.7550091978628 94.64899003612808 M722 94 C722 94, 722 94, 722 94 M722 94 C722 94, 722 94, 722 94 M722 94 C724.5598531187202 93.2032270738855, 728.1740835269914 97.31926473074903, 727.1895558794961 103.85185915324837 M722.8944846531376 93.66869160626084 C726.5171818248152 93.01719898539595, 726.2122240480502 97.70035676069868, 726.5244046893437 104.0387593071442" stroke="#adb5bd" stroke-width="1.8" fill="none" stroke-linecap="round" stroke-linejoin="round"/><rect x="663.05" y="13.12" width="107.50000000000001" height="25.76" rx="4" fill="#ffffff" opacity="0.94"/><text font-size="17" fill="#adb5bd" text-anchor="middle" dominant-baseline="central" font-weight="650"><tspan x="716.8" y="26">reserved 0</tspan></text><path d="M729.2 104 C729.7912829935551 97.15471523006757, 732.45887059172 93.60899958014488, 738.2208531916142 93.60441240668297 M729.2187331736088 104.2690232694149 C729.4802190110088 97.48521373619636, 731.5522599344453 93.60596227198839, 739.2255736157299 93.36400489360094 M739.4792552411557 93.92974582314491 C759.6705483078957 94.40955927228927, 779.471552067995 93.14850714063644, 798.6042664945126 94.54795661568642 M739.271901395917 93.75228230655193 C759.6923388665915 94.14318454191685, 779.0698838812114 94.0769408933878, 798.0764871388674 94.11068026721478 M798 94 C805.0332239369551 94.08599409461021, 807.0209409296513 90.50628186265628, 807.2943574488163 83.9284118115902 M798.0651256144047 93.67853292822838 C805.0514759982625 94.33124546557664, 807.94986885041 90.38594480703274, 808.5324252888561 84.5011183694005 M808 84 C808.3371659815311 90.00576115647952, 810.7634510894617 93.21420606970787, 818.7609683573246 94.7035764157772 M808.9411908686161 84.22441896796227 C807.5450828358531 91.76023613164823, 811.7249774580201 93.05354275256396, 819.0672028824687 93.55033964663744 M818.7072766721249 94.95224013924599 C839.1209693741798 93.92896702680588, 861.5633180820942 93.98422959241867, 876.8682071149349 94.42564502358437 M818.1781345158815 93.73121611773968 C837.0015080446004 94.14005418226719, 856.5022039610147 94.47204966948033, 877.1197899609804 93.58120648562908 M876.8 94 C882.5901542882124 93.87097963690758, 886.8580531656742 97.61769359310468, 887.636535602808 104.41008314490318 M877.1540994226932 94.73323282599449 C884.2341224158803 93.75647029429675, 886.6775759980083 96.50433318962654, 886.6640051171183 103.59100842028856" stroke="#6d28d9" stroke-width="1.8" fill="none" stroke-linecap="round" stroke-linejoin="round"/><rect x="726.2" y="45.12" width="163.60000000000002" height="25.76" rx="4" fill="#ffffff" opacity="0.94"/><text font-size="17" fill="#6d28d9" text-anchor="middle" dominant-baseline="central" font-weight="650"><tspan x="808" y="58">tenant · 24 bits</tspan></text><path d="M888.8 104 C889.0181763648986 96.9246433575948, 892.2595144589742 94.88911581039429, 898.2883942604064 94.27934408187866 M889.309283542633 103.6258864402771 C889.2465235471725 98.17147889931996, 893.2579490741094 93.42642300128936, 897.8390124082565 94.8679589509964 M899.5535872459411 94.40994882583618 C914.7507766628265 94.44225335121155, 929.5588059234618 93.31363701820374, 946.8977858543395 94.82097482681274 M898.5430527210235 93.89789652824402 C909.9509153366089 93.51048533172607, 920.7760142803191 93.59932963104248, 946.2039856433868 94.39099192619324 M946.1999999999999 94 C952.3688701311746 94.8634352684021, 957.0838410377502 90.55739990870158, 955.3425385475158 83.47822713851929 M945.7843262672424 93.01324605941772 C953.5904073158899 94.98487865924835, 956.2777605772018 90.64748877684276, 956.6606142759323 84.21171352863311 M956.1999999999999 84 C956.4600922584533 91.58007446924846, 958.6413717587789 94.1228346824646, 965.2122437477111 94.01794576644897 M955.5529572486877 84.59935140609741 C955.8793947935104 91.43274420897167, 959.4623779376348 93.61209423542023, 965.3854822874068 94.91549541950226 M966.5476576805114 93.78389596939087 C979.629270620346 94.22956691322327, 992.6498484039306 94.33776698646545, 1013.0017195701598 94.40537118911743 M966.5267548084258 93.78135752677917 C978.7776304244994 93.9377543258667, 991.156679868698 94.02928417205811, 1013.4569748401641 94.0325095653534 M1013.5999999999999 94 C1019.7766063372293 94.29783773422241, 1024.5252686500548 96.97634013493855, 1024.1384583473205 103.9228835105896 M1013.181320285797 93.91151571273804 C1020.6152219216027 94.61071102619171, 1024.1319453001022 97.66491456826527, 1024.4912150144576 104.63996288776397" stroke="#0f766e" stroke-width="1.8" fill="none" stroke-linecap="round" stroke-linejoin="round"/><rect x="893.0999999999999" y="45.12" width="126.2" height="25.76" rx="4" fill="#ffffff" opacity="0.94"/><text font-size="17" fill="#0f766e" text-anchor="middle" dominant-baseline="central" font-weight="650"><tspan x="956.1999999999999" y="58">VM · 20 bits</tspan></text><path d="M136.39999999999998 298 C135.83138125445691 304.8712005574877, 138.78877715573955 307.3287513712421, 146.9371761312708 308.0290325740352 M136.5574412276968 297.8455021539703 C135.89850490433162 304.4969036592326, 140.00320148261574 307.60543401124886, 146.6696454454679 308.35529818120415 M147.2254648307338 308.01284435298294 C154.22862040979786 307.24226262418705, 161.07087301187215 307.5438373610206, 171.34727956447747 307.5318568935618 M145.95410358263177 308.1340372194536 C154.54032868180423 307.80644684440347, 161.99609065765512 307.8368239790842, 170.87134195817632 307.5476631303318 M170.99999999999997 308 C177.4762003511811 308.00048519764096, 180.4209753265604 311.23332173222053, 181.4939284911379 318.4221957186237 M171.34000268485394 308.26960058603436 C177.36384729586229 307.1061519030016, 182.05850978982633 312.1593980409981, 180.87337173414414 318.9269788730424 M180.99999999999997 318 C180.51679021026936 312.3135732471322, 183.49421231852222 308.78949405346066, 190.88652494456616 308.4455991545692 M180.66745459940282 317.70096777472645 C180.2471373815555 312.2018783994795, 185.47222127558973 308.6598606589716, 190.32777189356273 307.27707416745835 M190.04495652113107 307.0962315192446 C197.36063787026328 307.91179374484494, 204.0366259592026 308.06545645622685, 215.7514222482219 307.3033439209685 M191.12392054451627 307.76860434608534 C197.97783619556574 308.1595185964271, 204.59424831802022 307.97824535955635, 215.59893870903176 307.770423673559 M215.59999999999997 308 C222.56166233128553 307.73572681937367, 224.86929798629131 304.9497629363711, 225.842292731069 297.7124214330688 M214.94003490116444 308.8247141102329 C222.2267277627407 307.5091685909312, 224.97705284100954 304.58435503972385, 225.34103730958884 298.11197116407567" stroke="#495057" stroke-width="1.8" fill="none" stroke-linecap="round" stroke-linejoin="round"/><text font-size="17" fill="#495057" text-anchor="middle" dominant-baseline="central" font-weight="650"><tspan x="180.99999999999997" y="344">fdaa</tspan></text><path d="M250.39999999999998 298 C250.02331593781707 303.750301035742, 253.847962967058 307.28704952448606, 260.5274932697415 308.227623693645 M249.5675964668393 297.0490508005023 C251.4202805545181 304.72931381004554, 253.273591373985 308.4958802971989, 261.24086970351635 307.22145843841133 M260.9823314115405 307.7195664718747 C268.1236440171301 307.1666683185041, 277.0830642277002 308.53219618677497, 284.01783322542906 307.82762468606234 M260.6185072340071 307.5626927576959 C265.7293101903796 308.3067112583756, 271.21896217629313 308.3999425787568, 285.01362139359117 307.5182900391519 M285 308 C290.83609037349623 307.2517523691058, 294.3386091068387 311.33352954437333, 295.7569598034024 317.2066700384021 M284.4713031128049 307.2725582048297 C291.2278587287913 307.0020308170468, 295.529569664225 311.9905951374521, 294.6056711342186 318.1513198647648 M295 318 C295.6218260601163 311.4990812068184, 299.148934332033 307.8758082315326, 305.42134488373995 308.7388830110431 M294.13914430886507 317.6349332258105 C294.00582152865826 310.8443431967248, 299.19044910532733 307.13542992211876, 304.8410045649856 308.23135642148554 M305.42507266253233 308.68249309808016 C312.6573075713217 307.3155097920835, 318.0809411007166 307.02778601240516, 329.90043195933106 308.1511088684201 M305.3699420131743 308.4709179364145 C312.4931299325824 308.2582165939927, 321.111255748719 308.1514013750672, 330.00698045864704 308.35371934995055 M329.6 308 C335.3755337233345 308.12169241160154, 339.81440041810276 303.98924890408915, 340.3734829261899 298.7943301126361 M329.96718261986973 308.27224373072386 C337.2291643208514 308.72426514960824, 340.60303674004973 304.95314560669163, 338.9986946370453 298.3888248119503" stroke="#92400e" stroke-width="1.8" fill="none" stroke-linecap="round" stroke-linejoin="round"/><text font-size="17" fill="#92400e" text-anchor="middle" dominant-baseline="central" font-weight="650"><tspan x="295" y="344">region</tspan></text><path d="M364.4 298 C365.27315228488294 304.60061025215936, 367.12414865003274 308.04615239892155, 375.37450685407964 308.42035327944905 M364.2224483421072 297.40392185840756 C364.2663713012356 305.7757486118159, 367.12790763171694 307.29595727804116, 375.2188312698621 308.30422751489095 M374.89376307521013 308.43740346934646 C398.4548249398544 307.64366923431606, 423.12988617125893 308.4506608412668, 456.7178330579772 308.51954162027687 M373.9418882067315 308.4856271375902 C405.0629460757784 307.39964685476497, 436.5762458996288 307.3873985621996, 456.0281405593268 308.3729392667301 M455.99999999999994 308 C462.9661586374665 308.7769224802032, 466.82504188921297 310.9303675352906, 466.3026886573061 317.08417682442814 M456.4379626801237 308.89653225336224 C461.8033399745045 308.05724264415915, 466.85967620504084 312.1634268619896, 466.5846623559016 316.93658172967844 M465.99999999999994 318 C466.92161971237505 310.8384693919991, 469.75602119074506 307.5655651250854, 476.99541023280466 307.44734771642834 M465.3941529979929 317.159366116859 C466.5900014896411 310.3952398010374, 469.0204358780601 308.226936507551, 475.72610093695107 307.01832756730727 M476.9916513720527 308.0033803572878 C496.4754813479259 308.6533027378961, 517.6726454073563 307.8226362256452, 557.5649231294169 308.80438008811325 M475.5583222950808 307.7755058486946 C502.80968618391074 308.22158543201164, 528.6821891222708 307.9261535647698, 557.756797796022 307.78641178505495 M557.5999999999999 308 C564.6523744017505 308.49808023963124, 568.4312472393735 303.80215847088647, 567.3665527751668 297.26901008281857 M556.9248814931138 307.3545541027561 C564.6558177619395 308.6125199216884, 568.0491398189681 305.2948680831275, 567.2332582597154 298.1094547274988" stroke="#6d28d9" stroke-width="1.8" fill="none" stroke-linecap="round" stroke-linejoin="round"/><text font-size="17" fill="#6d28d9" text-anchor="middle" dominant-baseline="central" font-weight="650"><tspan x="465.99999999999994" y="344">tenant · 32 bits</tspan></text><path d="M592.4 298 C592.7678628373891 303.7736902764688, 594.8700020918002 308.1376399528235, 602.0361224222928 307.2654464971274 M592.4181627441197 298.73382140509784 C592.2672851338051 303.8873605739015, 596.6489294652206 307.940882331226, 602.7370022996329 307.53800557861103 M603.1086423169821 308.8732830453664 C672.0585503220558 307.3112986004114, 741.8425170887261 308.3010842120409, 798.5584411751479 308.5139655638486 M602.8691318655386 308.4642814164981 C654.204944194518 308.4008278848067, 705.5447018741444 308.61737087382227, 797.9379478180781 307.679126447998 M798 308 C803.9551302759597 307.42688418738544, 807.1266092825681 311.89001217794913, 808.225542621687 317.16789145581424 M797.4445084501058 307.8673950564116 C803.7185757631125 308.1039945394732, 807.0204149111174 311.48150788157557, 806.8807832523249 316.988372975681 M808 318 C807.9942837525159 311.40435102892417, 811.4285171994319 308.6204004418105, 817.5944506097585 307.72538365237415 M807.3497266341001 318.6543546449393 C808.3224985166453 312.25923031776523, 811.7066688452227 308.7784944088198, 818.4060257448815 308.9687311739661 M818.6285251509398 307.53756101615727 C859.340485060215 308.4474851169825, 900.885588203743 308.2082687297106, 1013.8060099374502 308.3056906629354 M818.16123045329 307.7552107637748 C876.3412334012612 308.1945069565669, 935.1521043073013 307.46773539327535, 1013.6370622063055 308.0297605758533 M1013.5999999999999 308 C1019.7690489022681 307.4928947221488, 1023.1211328435688 305.2701585820566, 1022.7455140281468 297.1076526772231 M1012.7582477856427 307.7788607608527 C1019.851389052874 308.9343046189286, 1022.7182603015564 303.70968309749543, 1022.8959551884792 297.8529030830599" stroke="#0f766e" stroke-width="1.8" fill="none" stroke-linecap="round" stroke-linejoin="round"/><text font-size="17" fill="#0f766e" text-anchor="middle" dominant-baseline="central" font-weight="650"><tspan x="808" y="344">VM ID · 64 bits</tspan></text><path d="M807.9801952179884 150.18430748229392 C673.2604892347051 192.0962225628499, 539.4708054390304 231.0522538660257, 465.58977497912457 251.70781972015496 M807.9427776354008 149.4812561433671 C709.9661792962213 178.5296471207218, 612.4638856708482 207.17090168650375, 465.45731751059026 252.3133921161139" stroke="#e8590c" stroke-width="2.6" fill="none" stroke-linecap="round" stroke-linejoin="round" stroke-dasharray="7 6"/><path d="M476.1551701215078 243.23129272398225 C472.81054743946294 245.93293460337574, 469.4936744968499 248.44970809038452, 466.60892663925887 252.21780366450548 M476.3742185147275 242.99628183257454 C472.8269618689995 245.896166501887, 469.4529043603581 248.47207164142964, 465.8999687792361 251.7129425047338 M465.45333223313094 251.56022546321154 C470.5708549451037 252.21159089873947, 474.61140244620225 252.4914902224028, 480.4428463386685 254.65051826043384 M465.7102482821047 252.2348254774511 C470.467251402196 252.88865083782954, 474.24012011487264 253.03899758767113, 479.58495239294473 253.57186422823327" stroke="#e8590c" stroke-width="2.6" fill="none" stroke-linecap="round" stroke-linejoin="round"/><path d="M797.8788438547979 159.29735752958186 C800.4646292664149 155.5362880762186, 804.3839618170706 152.77544713963317, 807.9692095704377 150.5151745967567 M797.2280100329797 158.8979445416791 C801.5237320869272 155.66471842045445, 805.4245860467366 152.39298941306512, 808.3348823752254 150.1471345064789 M808.4783216233551 150.8230809764564 C804.0310880178677 150.11688296000324, 799.1494590717539 148.18243518697236, 793.2880315273313 147.9949514225279 M808.3705439390988 150.4064842341095 C803.3703025394767 149.6523492065467, 799.4636771388676 148.94467416966697, 794.1924362051545 148.03315462553547" stroke="#e8590c" stroke-width="2.6" fill="none" stroke-linecap="round" stroke-linejoin="round"/><path d="M956.4655526332558 148.8911598868668 C899.1388767837137 189.57573958907423, 841.4902820427119 227.01199871797263, 807.3132858209312 252.4198621697724 M955.411184379831 150.28119882009923 C918.4103731696367 175.41335901053665, 881.2993483635097 201.21048782872083, 807.3577708575874 252.3570666041225" stroke="#e8590c" stroke-width="2.6" fill="none" stroke-linecap="round" stroke-linejoin="round" stroke-dasharray="7 6"/><path d="M814.657928127579 239.4906766000261 C813.150696246645 243.96059528924096, 810.5751006725412 247.57109220677785, 807.4937124886363 251.95553896643221 M815.3350702824142 239.73963264825395 C813.4805918294718 242.34186575764744, 812.4452688666006 245.29035901595827, 807.8078635333851 251.82062003206462 M808.2779861130565 252.50766335226595 C810.9686939421717 251.4134965220829, 815.3113013722007 251.2746498416031, 821.9040873944199 248.72631902137584 M808.1731154846027 252.13755725931375 C812.5048845514239 250.90619082325625, 817.3772201665437 250.41234710256356, 821.7950570996663 249.164960969815" stroke="#e8590c" stroke-width="2.6" fill="none" stroke-linecap="round" stroke-linejoin="round"/><path d="M949.2312148223002 161.20865701736312 C951.5404031487503 157.23855405111345, 954.1694327273638 153.62698408536997, 956.7339954198152 150.25290989868344 M949.0384747620974 162.13321096909593 C950.9714240260763 158.60612043892556, 952.3614585177266 155.69057560828278, 956.4427771293745 150.2548120338097 M955.8229755032808 150.09051886551083 C952.1127033228468 150.25636767355567, 949.0376231865325 152.16188759437298, 942.8589819661344 152.47478429129535 M956.1934111415968 150.3092160159722 C951.4395222797726 150.5514897377181, 945.9242334538656 152.1172543696388, 942.8322502949277 152.3502834749427" stroke="#e8590c" stroke-width="2.6" fill="none" stroke-linecap="round" stroke-linejoin="round"/><text font-size="20" fill="#1e1e1e" text-anchor="middle" dominant-baseline="central" font-weight="400"><tspan x="580" y="394">2001:db8:1:2:3:a:bcd0:5   <tspan font-family="system-ui, -apple-system, 'Segoe UI', Roboto, 'Helvetica Neue', Arial, sans-serif">↔</tspan>   fdaa:1:0:abcd::5</tspan></text></svg>
